<?xml version="1.0" encoding="UTF-8"?>
<svg xmlns="http://www.w3.org/2000/svg" version="1.1" viewBox="0 0 2681.2 643.2">
  <defs>
    <style>
      .cls-1 {
        fill: none;
      }
    </style>
  </defs>
  <!-- Generator: Adobe Illustrator 28.6.0, SVG Export Plug-In . SVG Version: 1.2.0 Build 709)  -->
  <g>
    <g id="Capa_1">
      <g>
        <path d="M1735.1,109.2h-522.7c-5.6,0-7.6,7.6-2.6,10.2,32.9,17.3,57.7,45,73.5,83.2.8,2,2.8,3.4,5,3.4h336.2c3,0,5.4,2.4,5.4,5.4v52.3c0,3-2.4,5.4-5.4,5.4h-228.5c-3,0-5.4,2.4-5.4,5.4v85.9c0,3,2.4,5.4,5.4,5.4h228.5c3,0,5.4,2.4,5.4,5.4v60.5c0,3-2.4,5.4-5.4,5.4h-336.4c-2.2,0-4.2,1.3-5,3.4-15.8,38.2-40.7,65.9-73.6,83.2-5,2.6-3.1,10.2,2.5,10.2h523c3,0,5.4-2.4,5.4-5.4V114.6c0-3-2.4-5.4-5.4-5.4Z"/>
        <path class="cls-1" d="M1160.6,321.3c0-72.1-13.6-99.1-33.6-109.3-12.8-6.5-28.3-6-44.3-6h-117.1c-3,0-5.4,2.4-5.4,5.4v220.5c0,3,2.4,5.4,5.4,5.4h117.1c15.9,0,31.1.4,43.9-6,20.2-10.1,34.1-37.3,34.1-110Z"/>
        <g>
          <path class="cls-1" d="M1127,212c-12.8-6.5-28.3-6-44.3-6h-111.3c-6.2,0-11.2,5-11.2,11.2v208.9c0,6.2,5,11.2,11.2,11.2h111.3c15.9,0,31.1.4,43.9-6,20.2-10.1,34.1-37.3,34.1-110s-13.6-99.1-33.6-109.3Z"/>
          <path class="cls-1" d="M608.3,233.7c-1.7-4.7-8.5-4.7-10.2,0l-46.8,128c-1.3,3.5,1.3,7.3,5.1,7.3h93.6c3.8,0,6.4-3.7,5.1-7.3l-46.8-128Z"/>
          <path d="M676.3,112.7c-.8-2.1-2.8-3.6-5.1-3.6H62c-3,0-5.4,2.4-5.4,5.4v414.1c0,3,2.4,5.4,5.4,5.4h99.7c3,0,5.4-2.4,5.4-5.4v-157.4c0-3,2.4-5.4,5.4-5.4h201.4c3,0,5.4-2.4,5.4-5.4v-85.9c0-3-2.4-5.4-5.4-5.4h-201.4c-3,0-5.4-2.4-5.4-5.4v-52.3c0-3,2.4-5.4,5.4-5.4h323.5l-117.4,320.8c-1.3,3.5,1.3,7.3,5.1,7.3h100.6c2.3,0,4.3-1.4,5.1-3.6l22.4-61.2c.8-2.1,2.8-3.6,5.1-3.6h172.4c2.3,0,4.3,1.4,5.1,3.6l22.3,61.2c.8,2.1,2.8,3.6,5.1,3.6h100.6c3.8,0,6.4-3.7,5.1-7.3l-151.4-414.1ZM650,369h-93.6c-3.8,0-6.4-3.7-5.1-7.3l46.8-128c1.7-4.7,8.5-4.7,10.2,0l46.8,128c1.3,3.5-1.3,7.3-5.1,7.3Z"/>
          <path d="M1257.6,212c-19.2-46.3-52.6-76.7-98.5-91.8-22.6-7.4-48.1-11.1-76.4-11.1h-369.7c-7.5,0-12.8,7.4-10.2,14.5,41.2,114.4,146.8,405,146.8,405,0,3,2.4,5.4,5.4,5.4h227.7c28.2,0,53.7-3.7,76.2-11.1,45.9-15,79.3-45.5,98.6-91.7,12.5-30,19-66.6,19-110s-6.5-79.5-18.8-109.3ZM1126.5,431.3c-12.7,6.4-28,6-43.9,6h-111.3c-6.2,0-11.2-5-11.2-11.2v-208.9c0-6.2,5-11.2,11.2-11.2h111.3c16.1,0,31.5-.5,44.3,6,19.9,10.1,33.6,37.2,33.6,109.3s-13.9,99.8-34.1,110Z"/>
        </g>
        <path d="M2536.8,419.4l75.6,106.1c2.6,3.6,0,8.6-4.4,8.6h-117c-1.8,0-3.4-.8-4.4-2.3l-74.8-104.9c-1-1.4-2.7-2.3-4.4-2.3h-525.5c-3,0-5.4,2.4-5.4,5.4v98.6c0,3-2.4,5.4-5.4,5.4h-99.7c-3,0-5.4-2.4-5.4-5.4V114.6c0-3,2.4-5.4,5.4-5.4h691.5c128,0,161.9,100,161.9,152.9s-23,121.7-85.7,149.2c-3.2,1.4-4.3,5.3-2.3,8.1ZM2462.8,206h-581c-3,0-5.4,2.4-5.4,5.4v111c0,3,2.4,5.4,5.4,5.4h589.4c48.9,0,49.5-53.8,49.5-56.1,0-19.7-5.6-65.7-57.9-65.7Z"/>
      </g>
    </g>
  </g>
</svg>